# xmcd
#
# Track frame offsets: 
#        150
#        7087
#        11997
#        22937
#        35812
#        52062
#        66600
#        75425
#        92050
#        103750
#        113937
#        124450
#        133837
#        141975
#        154662
#        165925
#
# Disc length: 2307 seconds
#
# Revision: 3
# Processed by: cddbd v1.5.2PL0 Copyright (c) Steve Scherf et al.
# Submitted via: ExactAudioCopyFreeDBPlugin 1.0
#
DISCID=e3090110
DTITLE=Marlene Dietrich - Das war mein Milljöh
DYEAR=1989
DGENRE=Schlager
TTITLE0=Solang noch untern Linden
TTITLE1=Du hast ja keine Ahnung wie schön du bist Berlin
TTITLE2=Durch Berlin fließt immer noch die Spree
TTITLE3=Mit dir, mit dir da möcht ich sonntags angeln geh'n
TTITLE4=Nach meine Beene ist ja ganz Berlin verrückt
TTITLE5=Ja, das haben die Mädchen so gerne
TTITLE6=Wenn ein Mädel einen Herrn hat
TTITLE7=Lieber Leierkastenmann
TTITLE8=Das war in Schöneberg
TTITLE9=Unter'n Linden, unter'n Linden
TTITLE10=Das war sein Milljöh
TTITLE11=Wenn du einmal eine Braut hast
TTITLE12=Es gibt im Leben manchesmal Momente
TTITLE13=Wo hast du denn die schönen blauen Augen her?
TTITLE14=Das ist Berlin wie's weint, das ist Berlin wie's lacht
TTITLE15=Solang noch untern Linden
EXTD=YEAR: 1992
EXTT0=
EXTT1=
EXTT2=
EXTT3=
EXTT4=
EXTT5=
EXTT6=
EXTT7=
EXTT8=
EXTT9=
EXTT10=
EXTT11=
EXTT12=
EXTT13=
EXTT14=
EXTT15=
PLAYORDER=
